<svg xmlns="http://www.w3.org/2000/svg" viewBox="0 0 220 64" fill="none">
  <!-- Shield emblem -->
  <path d="M10 8 L30 4 L50 8 L50 32 C50 44 30 52 30 52 C30 52 10 44 10 32 Z" fill="#f5a623"/>
  <path d="M13 10.5 L30 7 L47 10.5 L47 31 C47 41.5 30 49 30 49 C30 49 13 41.5 13 31 Z" fill="#1a3a6b"/>
  <!-- Book icon inside shield -->
  <rect x="20" y="18" width="8" height="12" rx="1" fill="#f5a623" opacity="0.9"/>
  <rect x="30" y="18" width="8" height="12" rx="1" fill="#f5a623" opacity="0.9"/>
  <line x1="28" y1="18" x2="32" y2="18" stroke="#1a3a6b" stroke-width="1"/>
  <line x1="28" y1="30" x2="32" y2="30" stroke="#1a3a6b" stroke-width="1"/>
  <line x1="30" y1="18" x2="30" y2="30" stroke="#1a3a6b" stroke-width="1.5"/>
  <!-- Small star at top of shield -->
  <polygon points="30,9 31.2,12.2 34.6,12.2 31.9,14.3 32.9,17.5 30,15.6 27.1,17.5 28.1,14.3 25.4,12.2 28.8,12.2" fill="#f5a623" opacity="0.8"/>

  <!-- MDN text -->
  <text x="58" y="30" font-family="Georgia, 'Times New Roman', serif" font-size="26" font-weight="700" fill="white" letter-spacing="2">MDN</text>
  <!-- Global School text -->
  <text x="58" y="47" font-family="Georgia, 'Times New Roman', serif" font-size="13" font-weight="600" fill="#f5a623" letter-spacing="1.5">GLOBAL SCHOOL</text>
  <!-- Kaithal text -->
  <text x="58" y="60" font-family="Arial, sans-serif" font-size="9" font-weight="400" fill="rgba(255,255,255,0.65)" letter-spacing="3">KAITHAL · HARYANA</text>
</svg>
